# xmcd
#
# Track frame offsets:
#	150
#	12740
#	26720
#	41702
#	56782
#	70292
#	80932
#	95387
#	110172
#	118062
#	137942
#	153637
#	166845
#	180057
#	194980
#	205112
#
# Disc length: 2883 seconds
#
# Revision: 1
# Processed by: cddbd v1.5.2PL0 Copyright (c) Steve Scherf et al.
# Submitted via: audiograbber 1.83.01
#
DISCID=f20b4110
DTITLE=Various Artist - The Country Collection Vol. 1
DYEAR=1993
DGENRE=Country
TTITLE0=Lynn Anderson - I Never Promised You A Rose Garden
TTITLE1=Tammy Wynette - Stand By Your Man
TTITLE2=George Jones - I Always Get Lucky With You
TTITLE3=Barbara Fairchild - Rocky Top
TTITLE4=Charlie Rich - Behind Closed Doors
TTITLE5=Stella Parton - Standard Lie
TTITLE6=Mel Tillis - Ruby Don't Take Your Love To Town
TTITLE7=Hoyt Axton - Evangelina
TTITLE8=Johnny Tillotson - Send Me The Pillow
TTITLE9=The Bellamy Brothers - If I Said You Have A Beautiful Body
TTITLE10=Kathy Mattea - Heart Of The Country
TTITLE11=Tanya Tucker - San Antonio Stroll
TTITLE12=Johnny Rodriguez - Desperado
TTITLE13=Jeannie C. Riley - Harper Valley P.T.A.
TTITLE14=Dottie West - Ain't Nothing Like A Lady
TTITLE15=Jimmy Rodgers - Waltzing Matilda
EXTD=RC 83158
EXTT0=
EXTT1=
EXTT2=
EXTT3=
EXTT4=
EXTT5=
EXTT6=
EXTT7=
EXTT8=
EXTT9=
EXTT10=
EXTT11=
EXTT12=
EXTT13=
EXTT14=
EXTT15=
PLAYORDER=
